<svg width="44" height="44" viewBox="0 0 44 44" fill="none" xmlns="http://www.w3.org/2000/svg">
<g clip-path="url(#clip0_537_781)">
<path fill-rule="evenodd" clip-rule="evenodd" d="M22 24.5924L32.3712 34.9636C32.7169 35.2976 33.18 35.4824 33.6607 35.4782C34.1414 35.474 34.6013 35.2812 34.9412 34.9413C35.2811 34.6014 35.4739 34.1415 35.4781 33.6608C35.4822 33.1802 35.2975 32.717 34.9635 32.3713L24.5923 22.0001L34.9635 11.6289C35.2975 11.2832 35.4822 10.8201 35.4781 10.3394C35.4739 9.85868 35.2811 9.39886 34.9412 9.05894C34.6013 8.71903 34.1414 8.52622 33.6607 8.52204C33.18 8.51786 32.7169 8.70265 32.3712 9.03661L22 19.4078L11.6288 9.03661C11.2815 8.71091 10.8211 8.53311 10.345 8.54085C9.86892 8.54858 9.41452 8.74123 9.07795 9.07803C8.74138 9.41484 8.54905 9.86938 8.54166 10.3455C8.53427 10.8216 8.71239 11.2818 9.03833 11.6289L19.4077 22.0001L9.0365 32.3713C8.8614 32.5404 8.72173 32.7427 8.62565 32.9664C8.52957 33.19 8.47899 33.4306 8.47688 33.674C8.47476 33.9175 8.52115 34.1589 8.61333 34.3842C8.70551 34.6095 8.84164 34.8142 9.01378 34.9863C9.18591 35.1585 9.39061 35.2946 9.61592 35.3868C9.84123 35.479 10.0826 35.5254 10.3261 35.5232C10.5695 35.5211 10.8101 35.4705 11.0337 35.3745C11.2574 35.2784 11.4597 35.1387 11.6288 34.9636L22 24.5924Z" fill="#DDD2DA"/>
</g>
<defs>
<clipPath id="clip0_537_781">
<rect width="44" height="44" fill="white"/>
</clipPath>
</defs>
</svg>
